<svg width="20" height="22" viewBox="0 0 20 22" fill="none" xmlns="http://www.w3.org/2000/svg">
<path fill-rule="evenodd" clip-rule="evenodd" d="M9.99996 2.05084C13.2216 2.05084 15.8333 4.80871 15.8333 8.2107C15.95 10.965 13.8583 14.6346 10.675 19.2809C10.5182 19.5094 10.2672 19.6448 9.99996 19.6448C9.73272 19.6448 9.48169 19.5094 9.32496 19.2809C6.14163 14.6258 4.04996 10.9562 4.16663 8.2107C4.16663 4.80871 6.7783 2.05084 9.99996 2.05084ZM9.99996 17.2833C12.225 13.957 14.2833 10.4459 14.1666 8.2899V8.2635V8.2107C14.1666 5.7807 12.3012 3.8108 9.99996 3.8108C7.69878 3.8108 5.8333 5.7807 5.8333 8.2107V8.2635C5.71663 10.4195 7.77496 13.9306 9.99996 17.2833ZM9.99996 5.57076C8.61925 5.57076 7.49996 6.7527 7.49996 8.2107C7.49996 9.6687 8.61925 10.8506 9.99996 10.8506C11.3807 10.8506 12.5 9.6687 12.5 8.2107C12.5 7.51055 12.2366 6.83907 11.7677 6.34398C11.2989 5.8489 10.663 5.57076 9.99996 5.57076ZM9.16663 8.2107C9.16663 8.6967 9.53973 9.09068 9.99996 9.09068C10.4602 9.09068 10.8333 8.6967 10.8333 8.2107C10.8333 7.7247 10.4602 7.33072 9.99996 7.33072C9.53973 7.33072 9.16663 7.7247 9.16663 8.2107Z" fill="#FFF2F5"/>
</svg>
